<?xml version="1.0" encoding="UTF-8"?>
<svg width="752pt" height="752pt" version="1.1" viewBox="0 0 752 752" xmlns="http://www.w3.org/2000/svg">
 <path d="m589.07 324.33c0-1.8047-0.71875-3.5391-2-4.8125-1.2773-1.2734-3.0352-2.043-4.8164-1.9883l-147.9 0.070312-0.066406-147.9c-0.003906-3.7617-3.0508-6.8047-6.8125-6.8047l-103.14 0.046875c-1.8047 0-3.5391 0.71875-4.8125 1.9922-1.2773 1.2773-1.9922 3.0078-1.9922 4.8164l0.070312 147.9-147.9 0.074218c-3.7617 0-6.8047 3.0508-6.8047 6.8164l0.046875 103.14c0 1.8047 0.71875 3.5391 2 4.8125 1.2773 1.2734 3.0078 1.9883 4.8125 1.9883h0.003906l147.9-0.070312 0.070312 147.9c0 3.7617 3.0508 6.8047 6.8047 6.8047l103.14-0.046875c3.7617 0 6.8047-3.0508 6.8047-6.8086l-0.070312-147.9 147.9-0.070313c3.7617 0 6.8047-3.0508 6.8047-6.8086zm-161.47 96.414c-3.7617 0-6.8047 3.0508-6.8047 6.8086l0.070313 147.9-89.527 0.039063-0.070312-147.9c0-3.7617-3.0508-6.8047-6.8047-6.8047h-0.003906l-147.9 0.070313-0.050782-89.523 147.9-0.070312c3.7617 0 6.8047-3.0508 6.8047-6.8086l-0.066407-147.91 89.52-0.039063 0.070313 147.9c0 3.7617 3.0508 6.8047 6.8047 6.8047l147.9-0.070313 0.042969 89.52z"/>
</svg>
